<svg xmlns="http://www.w3.org/2000/svg" viewBox="0 0 1200 630" width="1200" height="630" role="img" aria-labelledby="t">
  <title id="t">Context Aging: What an Agent Forgets While It Is Still Running</title>
  <!--
    PLATE GRAMMAR — see retrieval-is-not-delivery/plate.svg for the shared
    frame, strokes, dot radii and colours. g.ink is set by
    scripts/align-plates.py; do not hand-tune it.

    THIS PLATE: one run of twelve turns, drawn twice inside one window. The
    top row is what is present: every turn, the fact at the second. The
    bottom row is what is effective: the same fact, its influence thinning
    to nothing long before the run ends. Nothing has left the frame. The
    output at the end is empty.
  -->
  <rect width="1200" height="630" fill="#FAFAF7"/>

  <g class="ink" transform="translate(-14,1)">
    <rect x="156" y="161" width="850" height="308" rx="6" fill="none" stroke="#1A1A1A" stroke-width="2" opacity=".28"/>
    <rect x="168" y="173.0" width="10" height="10" fill="#1A1A1A" opacity=".45"/>
    <circle cx="173" cy="338.0" r="5" fill="none" stroke="#1A1A1A" stroke-width="2" opacity=".45"/>
    <rect x="178" y="203" width="58" height="64" rx="3" fill="none" stroke="#1A1A1A" stroke-width="2" opacity=".40"/>
    <rect x="246" y="203" width="58" height="64" rx="3" fill="#0A5C38"/>
    <rect x="314" y="203" width="58" height="64" rx="3" fill="none" stroke="#1A1A1A" stroke-width="2" opacity=".40"/>
    <rect x="382" y="203" width="58" height="64" rx="3" fill="none" stroke="#1A1A1A" stroke-width="2" opacity=".40"/>
    <rect x="450" y="203" width="58" height="64" rx="3" fill="none" stroke="#1A1A1A" stroke-width="2" opacity=".40"/>
    <rect x="518" y="203" width="58" height="64" rx="3" fill="none" stroke="#1A1A1A" stroke-width="2" opacity=".40"/>
    <rect x="586" y="203" width="58" height="64" rx="3" fill="none" stroke="#1A1A1A" stroke-width="2" opacity=".40"/>
    <rect x="654" y="203" width="58" height="64" rx="3" fill="none" stroke="#1A1A1A" stroke-width="2" opacity=".40"/>
    <rect x="722" y="203" width="58" height="64" rx="3" fill="none" stroke="#1A1A1A" stroke-width="2" opacity=".40"/>
    <rect x="790" y="203" width="58" height="64" rx="3" fill="none" stroke="#1A1A1A" stroke-width="2" opacity=".40"/>
    <rect x="858" y="203" width="58" height="64" rx="3" fill="none" stroke="#1A1A1A" stroke-width="2" opacity=".40"/>
    <rect x="926" y="203" width="58" height="64" rx="3" fill="none" stroke="#1A1A1A" stroke-width="2" opacity=".40"/>
    <rect x="178" y="363" width="58" height="64" rx="3" fill="none" stroke="#1A1A1A" stroke-width="2" opacity=".14"/>
    <rect x="246" y="363" width="58" height="64" rx="3" fill="none" stroke="#1A1A1A" stroke-width="2" opacity=".14"/>
    <rect x="314" y="363" width="58" height="64" rx="3" fill="none" stroke="#1A1A1A" stroke-width="2" opacity=".14"/>
    <rect x="382" y="363" width="58" height="64" rx="3" fill="none" stroke="#1A1A1A" stroke-width="2" opacity=".14"/>
    <rect x="450" y="363" width="58" height="64" rx="3" fill="none" stroke="#1A1A1A" stroke-width="2" opacity=".14"/>
    <rect x="518" y="363" width="58" height="64" rx="3" fill="none" stroke="#1A1A1A" stroke-width="2" opacity=".14"/>
    <rect x="586" y="363" width="58" height="64" rx="3" fill="none" stroke="#1A1A1A" stroke-width="2" opacity=".14"/>
    <rect x="654" y="363" width="58" height="64" rx="3" fill="none" stroke="#1A1A1A" stroke-width="2" opacity=".14"/>
    <rect x="722" y="363" width="58" height="64" rx="3" fill="none" stroke="#1A1A1A" stroke-width="2" opacity=".14"/>
    <rect x="790" y="363" width="58" height="64" rx="3" fill="none" stroke="#1A1A1A" stroke-width="2" opacity=".14"/>
    <rect x="858" y="363" width="58" height="64" rx="3" fill="none" stroke="#1A1A1A" stroke-width="2" opacity=".14"/>
    <rect x="926" y="363" width="58" height="64" rx="3" fill="none" stroke="#1A1A1A" stroke-width="2" opacity=".14"/>
    <rect x="246" y="363" width="58" height="64" rx="3" fill="#0A5C38"/>
    <line x1="312" y1="395" x2="372" y2="395" stroke="#0A5C38" stroke-width="9.0" stroke-linecap="round" opacity="1.0"/>
    <line x1="380" y1="395" x2="440" y2="395" stroke="#0A5C38" stroke-width="7.9" stroke-linecap="round" opacity="0.78"/>
    <line x1="448" y1="395" x2="508" y2="395" stroke="#0A5C38" stroke-width="6.8" stroke-linecap="round" opacity="0.58"/>
    <line x1="516" y1="395" x2="576" y2="395" stroke="#0A5C38" stroke-width="5.7" stroke-linecap="round" opacity="0.42"/>
    <line x1="584" y1="395" x2="644" y2="395" stroke="#0A5C38" stroke-width="4.6" stroke-linecap="round" opacity="0.28"/>
    <line x1="652" y1="395" x2="712" y2="395" stroke="#0A5C38" stroke-width="3.5" stroke-linecap="round" opacity="0.16"/>
    <line x1="720" y1="395" x2="780" y2="395" stroke="#0A5C38" stroke-width="2.4" stroke-linecap="round" opacity="0.07"/>
    <line x1="275" y1="273" x2="275" y2="357" stroke="#0A5C38" stroke-width="2" stroke-dasharray="4 5" opacity=".6"/>
    <line x1="955" y1="441" x2="955" y2="467" stroke="#1A1A1A" stroke-width="3" stroke-linecap="round" opacity=".55"/>
    <line x1="1006" y1="395" x2="1028" y2="395" stroke="#1A1A1A" stroke-width="2" opacity=".3"/>
    <circle cx="1054" cy="395" r="20" fill="none" stroke="#9B4A2F" stroke-width="4"/>
  </g>
</svg>
